<svg width="100" height="100" xmlns="http://www.w3.org/2000/svg">
  <defs>
    <linearGradient id="waterGradient" x1="0%" y1="0%" x2="0%" y2="100%">
      <stop offset="0%" style="stop-color:#3B82F6;stop-opacity:1" />
      <stop offset="100%" style="stop-color:#1E40AF;stop-opacity:1" />
    </linearGradient>
  </defs>

  <!-- Background circle -->
  <circle cx="50" cy="50" r="45" fill="url(#waterGradient)" stroke="#1E40AF" stroke-width="2"/>

  <!-- Swimming person silhouette -->
  <path d="M35 35 Q40 30 45 35 Q50 40 55 35 Q60 30 65 35 L65 45 Q60 50 55 45 Q50 50 45 45 Q40 50 35 45 Z" fill="white" opacity="0.9"/>

  <!-- Water waves -->
  <path d="M20 60 Q30 55 40 60 Q50 65 60 60 Q70 55 80 60" stroke="white" stroke-width="2" fill="none" opacity="0.7"/>
  <path d="M15 70 Q25 65 35 70 Q45 75 55 70 Q65 65 75 70 Q85 65 95 70" stroke="white" stroke-width="2" fill="none" opacity="0.5"/>
</svg>
